<svg width="100" height="100" viewBox="0 0 100 100" fill="none" xmlns="http://www.w3.org/2000/svg">
  <path d="M79.5155 95.8683L3.27106 93.3292L17.9539 63.3827L33.1925 33.2876L79.5155 95.8683Z" fill="#60A5FA"/>
  <path d="M96.0587 68.2065L79.5154 95.8682L33.1924 33.2875L47.6703 3.48962L96.0587 68.2065Z" fill="#F87171"/>
  <path fill-rule="evenodd" clip-rule="evenodd" d="M47.489 0.0145137C48.8369 -0.100123 50.1473 0.470412 50.925 1.51052L99.3134 66.2274C100.135 67.3258 100.226 68.7652 99.55 69.9475L83.4312 98.1293C82.7448 99.3293 81.3878 100.055 79.9385 99.9968L3.62019 96.9376C2.36101 96.8871 1.21138 96.2509 0.554404 95.241C-0.102568 94.2311 -0.180514 92.9803 0.346541 91.9053L44.3952 2.06586C44.9612 0.911476 46.1411 0.12915 47.489 0.0145137ZM48.5145 10.6455L37.4922 33.126L55.3708 56.997L67.5755 36.1385L48.5145 10.6455ZM72.4164 42.613L60.2106 63.4734L79.6801 89.6786L91.784 68.5162L72.4164 42.613ZM72.626 92.5958L53.7829 67.2337L20.8783 67.0108L9.57311 90.0684L72.626 92.5958ZM24.3487 59.9328L48.446 60.096L33.8341 40.5868L24.3487 59.9328Z" fill="#3F3F46"/>
</svg>
