<?xml version="1.0" encoding="UTF-8"?>
<svg width="27px" height="23px" viewBox="0 0 27 23" version="1.1" xmlns="http://www.w3.org/2000/svg" xmlns:xlink="http://www.w3.org/1999/xlink">
    <g id="Page-1" stroke="none" stroke-width="1" fill="none" fill-rule="evenodd">
        <g id="icon_sort-copy" transform="translate(-12.000000, -13.000000)" fill="#24408E">
            <path d="M18.8284271,27 L24.4350288,32.6066017 C25.2160774,33.3876503 25.2160774,34.6539803 24.4350288,35.4350288 C23.6539803,36.2160774 22.3876503,36.2160774 21.6066017,35.4350288 L13.1213203,26.9497475 C13.0296599,26.858087 12,26 12,25 C12,24 12.9545713,23.066244 13.1213203,22.8994949 L21.6066017,14.4142136 C22.3876503,13.633165 23.6539803,13.633165 24.4350288,14.4142136 C25.2160774,15.1952621 25.2160774,16.4615921 24.4350288,17.2426407 L18.6776695,23 L37,23 C38.1045695,23 39,23.8954305 39,25 C39,26.1045695 38.1045695,27 37,27 L18.8284271,27 Z" id="Path"></path>
        </g>
    </g>
</svg>