<?xml version="1.0" encoding="UTF-8"?>
<svg width="34px" height="35px" viewBox="0 0 34 35" version="1.1" xmlns="http://www.w3.org/2000/svg" xmlns:xlink="http://www.w3.org/1999/xlink">
    <g id="icon/back-to-notes" stroke="none" stroke-width="1" fill="none" fill-rule="evenodd">
        <path d="M12,3 L33,3 C33.5522847,3 34,3.42058099 34,3.93939394 L34,33.0606061 C34,33.579419 33.5522847,34 33,34 L12,34 C11.4477153,34 11,33.579419 11,33.0606061 L11,3.93939394 C11,3.42058099 11.4477153,3 12,3 Z M13,5 L13,32 L32,32 L32,5 L13,5 Z" id="Rectangle" fill="#333333" fill-rule="nonzero"></path>
        <rect id="Rectangle" fill="#333333" x="15" y="9" width="15" height="2" rx="1"></rect>
        <rect id="Rectangle-Copy-2" fill="#333333" x="15" y="13" width="15" height="2" rx="1"></rect>
        <rect id="Rectangle-Copy-4" fill="#333333" x="15" y="17" width="15" height="2" rx="1"></rect>
        <rect id="Rectangle-Copy-3" fill="#333333" x="15" y="21" width="10" height="2" rx="1"></rect>
        <rect id="Rectangle" fill="#333333" transform="translate(4.242641, 15.242641) rotate(-315.000000) translate(-4.242641, -15.242641) " x="3.24264069" y="10.2426407" width="2" height="10" rx="1"></rect>
        <rect id="Rectangle-Copy" fill="#333333" transform="translate(4.242641, 21.242641) rotate(-45.000000) translate(-4.242641, -21.242641) " x="3.24264069" y="16.2426407" width="2" height="10" rx="1"></rect>
    </g>
</svg>