<?xml version="1.0" encoding="UTF-8"?>
<svg width="12px" height="12px" viewBox="0 0 12 12" version="1.1" xmlns="http://www.w3.org/2000/svg" xmlns:xlink="http://www.w3.org/1999/xlink">
    <!-- Generator: Sketch 55.2 (78181) - https://sketchapp.com -->
    <title>Path</title>
    <desc>Created with Sketch.</desc>
    <g id="home" stroke="none" stroke-width="1" fill="none" fill-rule="evenodd">
        <g id="Mobile" transform="translate(-143.000000, -162.000000)" fill="#3E3E3E" fill-rule="nonzero">
            <path d="M149,162.1485 C145.685,162.1485 143,164.835 143,168.1485 C143,170.8 144.719,173.0485 147.1025,173.841 C147.4025,173.8975 147.5125,173.712 147.5125,173.5525 C147.5125,173.41 147.5075,173.0325 147.505,172.5325 C145.836,172.8945 145.484,171.7275 145.484,171.7275 C145.211,171.035 144.8165,170.85 144.8165,170.85 C144.273,170.478 144.8585,170.4855 144.8585,170.4855 C145.461,170.5275 145.7775,171.1035 145.7775,171.1035 C146.3125,172.021 147.182,171.756 147.525,171.6025 C147.579,171.2145 147.7335,170.95 147.905,170.8 C146.5725,170.65 145.172,170.134 145.172,167.835 C145.172,167.18 145.4045,166.645 145.7895,166.225 C145.722,166.0735 145.5195,165.4635 145.842,164.637 C145.842,164.637 146.3445,164.476 147.492,165.252 C147.972,165.1185 148.482,165.0525 148.992,165.0495 C149.502,165.0525 150.012,165.1185 150.492,165.252 C151.632,164.476 152.1345,164.637 152.1345,164.637 C152.457,165.4635 152.2545,166.0735 152.1945,166.225 C152.577,166.645 152.8095,167.18 152.8095,167.835 C152.8095,170.14 151.407,170.6475 150.072,170.795 C150.282,170.975 150.477,171.343 150.477,171.905 C150.477,172.708 150.4695,173.353 150.4695,173.548 C150.4695,173.7055 150.5745,173.893 150.882,173.833 C153.2825,173.046 155,170.796 155,168.1485 C155,164.835 152.3135,162.1485 149,162.1485" id="Path"></path>
        </g>
    </g>
</svg>