<?xml version="1.0" encoding="UTF-8"?>
<svg width="34px" height="35px" viewBox="0 0 34 35" version="1.1" xmlns="http://www.w3.org/2000/svg" xmlns:xlink="http://www.w3.org/1999/xlink">
    <!-- Generator: Sketch 53.1 (72631) - https://sketchapp.com -->
    <title>home</title>
    <desc>Created with Sketch.</desc>
    <g id="Page-1" stroke="none" stroke-width="1" fill="none" fill-rule="evenodd">
        <g id="icon_home" transform="translate(-8.000000, -7.000000)" fill="#333333">
            <g id="home" transform="translate(8.000000, 7.413348)">
                <path d="M23,32.5866517 L30,32.5866517 L30,14.1045704 L17.3612122,2.31871009 L5,13.845727 L5,32.5866517 L12,32.5866517 L12,19.5866517 C12,19.034367 12.4477153,18.5866517 13,18.5866517 L22,18.5866517 C22.5522847,18.5866517 23,19.034367 23,19.5866517 L23,32.5866517 Z M32,32.5866517 L33,32.5866517 C33.5522847,32.5866517 34,33.034367 34,33.5866517 C34,34.1389365 33.5522847,34.5866517 33,34.5866517 L1,34.5866517 C0.44771525,34.5866517 6.76353751e-17,34.1389365 0,33.5866517 C-6.76353751e-17,33.034367 0.44771525,32.5866517 1,32.5866517 L3,32.5866517 L3,15.7107571 L2.63264302,16.0533231 C2.22872752,16.4299804 1.59594825,16.4078832 1.21929096,16.0039677 C0.842633663,15.6000522 0.864730802,14.967273 1.2686463,14.5906157 L16.627074,0.268650109 C16.8335711,0.0760884961 17.099885,-0.0122528477 17.3612122,0.00136308703 C17.6225394,-0.0122528477 17.8888534,0.0760884961 18.0953504,0.268650109 L31.3889101,12.6650951 C31.606917,12.7572102 31.7854507,12.9244249 31.892088,13.134316 L33.4537782,14.5906157 C33.8576937,14.967273 33.8797908,15.6000522 33.5031335,16.0039677 C33.1264762,16.4078832 32.4936969,16.4299804 32.0897814,16.0533231 L32,15.9696005 L32,32.5866517 Z M15,20.5866517 C14.4477153,20.5866517 14,21.034367 14,21.5866517 L14,32.5866517 L21,32.5866517 L21,21.5866517 C21,21.034367 20.5522847,20.5866517 20,20.5866517 L15,20.5866517 Z" id="Combined-Shape"></path>
            </g>
        </g>
    </g>
</svg>