<?xml version="1.0" encoding="UTF-8"?>
<svg width="62px" height="81px" viewBox="0 0 62 81" version="1.1" xmlns="http://www.w3.org/2000/svg" xmlns:xlink="http://www.w3.org/1999/xlink">
    <g id="Page-1" stroke="none" stroke-width="1" fill="none" fill-rule="evenodd">
        <g id="Logo" transform="translate(-21.000000, -9.000000)">
            <g id="ipadpro+pencil" transform="translate(21.000000, 9.000000)">
                <g id="ipad">
                    <path d="M5.1277704,-2.07168062e-16 L53.8722296,2.07168062e-16 C55.6552671,-1.2037061e-16 56.3018396,0.185651222 56.9536914,0.534265408 C57.6055433,0.882879593 58.1171204,1.39445674 58.4657346,2.04630859 C58.8143488,2.69816044 59,3.34473292 59,5.1277704 L59,75.8722296 C59,77.6552671 58.8143488,78.3018396 58.4657346,78.9536914 C58.1171204,79.6055433 57.6055433,80.1171204 56.9536914,80.4657346 C56.3018396,80.8143488 55.6552671,81 53.8722296,81 L5.1277704,81 C3.34473292,81 2.69816044,80.8143488 2.04630859,80.4657346 C1.39445674,80.1171204 0.882879593,79.6055433 0.534265408,78.9536914 C0.185651222,78.3018396 8.02470732e-17,77.6552671 -1.38112041e-16,75.8722296 L1.38112041e-16,5.1277704 C-8.02470732e-17,3.34473292 0.185651222,2.69816044 0.534265408,2.04630859 C0.882879593,1.39445674 1.39445674,0.882879593 2.04630859,0.534265408 C2.69816044,0.185651222 3.34473292,1.2037061e-16 5.1277704,-2.07168062e-16 Z" id="body" fill="#000000"></path>
                    <path d="M5.5638852,3 L53.4361148,3 C54.3276335,3 54.6509198,3.09282561 54.9768457,3.2671327 C55.3027716,3.4414398 55.5585602,3.69722837 55.7328673,4.0231543 C55.9071744,4.34908022 56,4.67236646 56,5.5638852 L56,75.4361148 C56,76.3276335 55.9071744,76.6509198 55.7328673,76.9768457 C55.5585602,77.3027716 55.3027716,77.5585602 54.9768457,77.7328673 C54.6509198,77.9071744 54.3276335,78 53.4361148,78 L5.5638852,78 C4.67236646,78 4.34908022,77.9071744 4.0231543,77.7328673 C3.69722837,77.5585602 3.4414398,77.3027716 3.2671327,76.9768457 C3.09282561,76.6509198 3,76.3276335 3,75.4361148 L3,5.5638852 C3,4.67236646 3.09282561,4.34908022 3.2671327,4.0231543 C3.4414398,3.69722837 3.69722837,3.4414398 4.0231543,3.2671327 C4.34908022,3.09282561 4.67236646,3 5.5638852,3 Z" id="screen" fill="#333333"></path>
                </g>
                <path d="M60.5,12 C61.3284271,12 62,12.6715729 62,13.5 L62,62 L59,62 L59,13.5 C59,12.6715729 59.6715729,12 60.5,12 Z M62,62.0021812 C61.3333333,64.0021812 60.8333333,65.0021812 60.5,65.0021812 C60.1666667,65.0021812 59.6666667,64.0014541 59,62 L62,62.0021812 Z" id="pencil" fill="#FCFAFA"></path>
            </g>
        </g>
    </g>
</svg>