<?xml version="1.0" encoding="UTF-8"?>
<svg width="12px" height="12px" viewBox="0 0 12 12" version="1.1" xmlns="http://www.w3.org/2000/svg" xmlns:xlink="http://www.w3.org/1999/xlink">
    <!-- Generator: Sketch 55.2 (78181) - https://sketchapp.com -->
    <title>Shape</title>
    <desc>Created with Sketch.</desc>
    <g id="home" stroke="none" stroke-width="1" fill="none" fill-rule="evenodd">
        <g id="Mobile" transform="translate(-163.000000, -162.000000)" fill="#3E3E3E" fill-rule="nonzero">
            <path d="M173.2235,172.226 L171.4465,172.226 L171.4465,169.4415 C171.4465,168.7775 171.433,167.923 170.5205,167.923 C169.594,167.923 169.4525,168.6455 169.4525,169.3925 L169.4525,172.226 L167.6755,172.226 L167.6755,166.5 L169.3825,166.5 L169.3825,167.2805 L169.4055,167.2805 C169.644,166.8305 170.224,166.3555 171.0905,166.3555 C172.891,166.3555 173.224,167.5405 173.224,169.083 L173.224,172.226 L173.2235,172.226 Z M165.6685,165.7165 C165.0965,165.7165 164.637,165.2535 164.637,164.684 C164.637,164.115 165.097,163.6525 165.6685,163.6525 C166.2385,163.6525 166.7005,164.115 166.7005,164.684 C166.7005,165.2535 166.238,165.7165 165.6685,165.7165 Z M166.5595,172.226 L164.7775,172.226 L164.7775,166.5 L166.5595,166.5 L166.5595,172.226 Z M174.1125,162 L163.8855,162 C163.396,162 163,162.387 163,162.8645 L163,173.1355 C163,173.6135 163.396,174 163.8855,174 L174.111,174 C174.6,174 175,173.6135 175,173.1355 L175,162.8645 C175,162.387 174.6,162 174.111,162 L174.1125,162 Z" id="Shape"></path>
        </g>
    </g>
</svg>