<?xml version="1.0" encoding="UTF-8"?>
<svg width="59px" height="76px" viewBox="0 0 59 76" version="1.1" xmlns="http://www.w3.org/2000/svg" xmlns:xlink="http://www.w3.org/1999/xlink">
    <g id="Symbols" stroke="none" stroke-width="1" fill="none" fill-rule="evenodd">
        <g id="page">
            <g>
                <rect id="Rectangle" fill="#FFFFFF" x="0" y="0" width="59" height="76"></rect>
                <rect id="Rectangle" fill="#EEEEEE" x="0" y="11" width="59" height="1"></rect>
                <rect id="Rectangle-Copy" fill="#EEEEEE" x="0" y="15" width="59" height="1"></rect>
                <rect id="Rectangle-Copy-2" fill="#EEEEEE" x="0" y="19" width="59" height="1"></rect>
                <rect id="Rectangle-Copy-3" fill="#EEEEEE" x="0" y="23" width="59" height="1"></rect>
                <rect id="Rectangle-Copy-4" fill="#EEEEEE" x="0" y="27" width="59" height="1"></rect>
                <rect id="Rectangle-Copy-5" fill="#EEEEEE" x="0" y="31" width="59" height="1"></rect>
                <rect id="Rectangle-Copy-6" fill="#EEEEEE" x="0" y="35" width="59" height="1"></rect>
                <rect id="Rectangle-Copy-7" fill="#EEEEEE" x="0" y="39" width="59" height="1"></rect>
                <rect id="Rectangle-Copy-8" fill="#EEEEEE" x="0" y="43" width="59" height="1"></rect>
                <rect id="Rectangle-Copy-9" fill="#EEEEEE" x="0" y="47" width="59" height="1"></rect>
                <rect id="Rectangle-Copy-10" fill="#EEEEEE" x="0" y="51" width="59" height="1"></rect>
                <rect id="Rectangle-Copy-11" fill="#EEEEEE" x="0" y="55" width="59" height="1"></rect>
                <rect id="Rectangle-Copy-12" fill="#EEEEEE" x="0" y="59" width="59" height="1"></rect>
                <rect id="Rectangle-Copy-13" fill="#EEEEEE" x="0" y="63" width="59" height="1"></rect>
                <rect id="Rectangle-Copy-14" fill="#EEEEEE" x="0" y="67" width="59" height="1"></rect>
                <rect id="Rectangle-Copy-15" fill="#EEEEEE" x="0" y="71" width="59" height="1"></rect>
                <rect id="Rectangle" fill="#EEEEEE" x="6" y="0" width="1" height="76"></rect>
                <ellipse id="Oval" fill="#B4B4B4" cx="3" cy="8.14285714" rx="1" ry="1"></ellipse>
                <ellipse id="Oval-Copy" fill="#B4B4B4" cx="3" cy="38" rx="1" ry="1"></ellipse>
                <ellipse id="Oval-Copy-2" fill="#B4B4B4" cx="3" cy="67.8571429" rx="1" ry="1"></ellipse>
            </g>
        </g>
    </g>
</svg>