<?xml version="1.0" encoding="UTF-8"?>
<svg width="7px" height="7px" viewBox="0 0 7 7" version="1.1" xmlns="http://www.w3.org/2000/svg" xmlns:xlink="http://www.w3.org/1999/xlink">
    <g id="Page-1" stroke="none" stroke-width="1" fill="none" fill-rule="evenodd">
        <g id="Mobile" transform="translate(-188.000000, -12.000000)" fill="#333333">
            <g id="search" transform="translate(188.000000, 12.000000)">
                <path d="M4.16195568,4.84195454 C3.12737313,5.55657372 1.69849564,5.45347648 0.777681995,4.53266283 C-0.259227332,3.49575351 -0.259227332,1.81459132 0.777681995,0.777681995 C1.81459132,-0.259227332 3.49575351,-0.259227332 4.53266283,0.777681995 C5.45347648,1.69849564 5.55657372,3.12737313 4.84195454,4.16195568 C4.85297179,4.17116923 4.86367478,4.18095099 4.87402473,4.19130094 L6.75151515,6.06879136 C6.94004411,6.25732033 6.94004411,6.56298618 6.75151515,6.75151515 C6.56298618,6.94004411 6.25732033,6.94004411 6.06879136,6.75151515 L4.19130094,4.87402473 C4.18095099,4.86367478 4.17116923,4.85297179 4.16195568,4.84195454 L4.16195568,4.84195454 Z M4.02061999,4.02061999 C4.77473586,3.26650412 4.77473586,2.04384071 4.02061999,1.28972484 C3.26650412,0.535608963 2.04384071,0.535608963 1.28972484,1.28972484 C0.535608963,2.04384071 0.535608963,3.26650412 1.28972484,4.02061999 C2.04384071,4.77473586 3.26650412,4.77473586 4.02061999,4.02061999 Z" id="Shape"></path>
            </g>
        </g>
    </g>
</svg>