<svg width="492" height="345" viewBox="0 0 492 345" fill="none" xmlns="http://www.w3.org/2000/svg">
  <path d="M172.012 135.697L357.5 207V208.563C357.5 208.841 357.384 209.108 357.179 209.297L238 319.5L55.5355 223.781C55.2062 223.608 55 223.267 55 222.895V221.5L171.059 135.826C171.334 135.623 171.693 135.574 172.012 135.697Z" fill="#787878"/>
  <path d="M55 221.5L238 317.5M55 221.5L171.059 135.826C171.334 135.623 171.693 135.574 172.012 135.697L357.5 207M55 221.5V222.895C55 223.267 55.2062 223.608 55.5355 223.781L238 319.5M238 317.5L357.5 207M238 317.5V319.5M357.5 207V208.563C357.5 208.841 357.384 209.108 357.179 209.297L238 319.5" stroke="#707070" stroke-width="3"/>
  <mask id="mask0" style="mask-type:alpha" maskUnits="userSpaceOnUse" x="171" y="2" width="218" height="205">
    <path d="M171.736 135.782L356.394 206.576C356.973 206.798 357.611 206.446 357.733 205.839L388.313 53.4333C388.418 52.9106 388.094 52.3975 387.577 52.267L189.59 2.27527C189.01 2.12874 188.432 2.5214 188.354 3.11487L171.102 134.718C171.042 135.177 171.304 135.617 171.736 135.782Z" fill="#C4C4C4"/>
  </mask>
  <g mask="url(#mask0)">
    <path d="M388.5 53L357.5 206.5L171 135.5L189 2.5L388.5 53Z" fill="url(#paint0_linear)"/>
    <g filter="url(#filter0_f)">
      <path d="M355.5 90.4998C365.745 90.4998 381.5 86.9998 381.5 86.9998L358 206L171.5 135.5L178.5 81.5C178.5 81.5 213 65.5 246.5 84.5C246.5 84.5 265.534 78.1373 283.5 76.9998C312.051 75.1923 335.5 90.4999 355.5 90.4998Z" fill="#F87171"/>
      <path d="M355.5 90.4998C365.745 90.4998 381.5 86.9998 381.5 86.9998L358 206L171.5 135.5L178.5 81.5C178.5 81.5 213 65.5 246.5 84.5C246.5 84.5 265.534 78.1373 283.5 76.9998C312.051 75.1923 335.5 90.4999 355.5 90.4998Z" fill="#60A5FA" fill-opacity="0.45"/>
    </g>
    <g filter="url(#filter1_f)">
      <path d="M329 108C348.193 108.955 378 103.5 378 103.5L358 206.5L170.5 134.5L178 81.5001C178 81.5001 194.5 74 217 75.5001C237.479 76.8654 243.192 84.5598 260 90.0001C286.495 98.5757 301.186 106.617 329 108Z" fill="url(#paint1_linear)"/>
    </g>
    <g filter="url(#filter2_f)">
      <path d="M332 129.5C347.5 131.5 372 144 372 144L359 207L179.5 139.5C179.5 139.5 182 134.5 187.5 132C193 129.5 217.5 124 220.5 124C223.5 124 236 120.5 250 120.5C264 120.5 277 125.5 286 125.5C295 125.5 316.5 127.5 332 129.5Z" fill="url(#paint2_linear)"/>
    </g>
  </g>
  <path d="M171.736 135.782L356.394 206.576C356.973 206.798 357.611 206.446 357.733 205.839L388.313 53.4333C388.418 52.9106 388.094 52.3975 387.577 52.267L189.59 2.27527C189.01 2.12874 188.432 2.5214 188.354 3.11487L171.102 134.718C171.042 135.177 171.304 135.617 171.736 135.782Z" stroke="#707070" stroke-width="3"/>
  <path d="M118.831 245.194L186.884 280.679C187.254 280.872 187.706 280.814 188.016 280.535L216.894 254.497C217.422 254.021 217.299 253.162 216.659 252.853L148.08 219.78C147.727 219.609 147.307 219.661 147.005 219.912L118.653 243.539C118.105 243.996 118.198 244.864 118.831 245.194Z" fill="#707070"/>
  <path d="M266.27 270.54L265.355 270.104L265.331 270.093L114.111 198.071C112.406 197.26 112.182 194.924 113.701 193.803L170.16 152.125C170.858 151.61 171.773 151.493 172.577 151.816L323.62 212.53C325.306 213.207 325.729 215.4 324.416 216.656L310.366 230.094L280.516 257.422L280.509 257.429L266.27 270.54Z" fill="#595959"/>
  <path fill-rule="evenodd" clip-rule="evenodd" d="M171.717 154.704L160.243 163.175L172.952 168.646L184.493 159.839L171.717 154.704ZM187.732 161.141L176.113 170.008L189.29 175.681L201.029 166.486L187.732 161.141ZM204.244 167.778L192.43 177.032L205.636 182.718L217.134 172.96L204.244 167.778ZM220.28 174.224L208.712 184.043L221.447 189.526L232.726 179.227L220.28 174.224ZM235.815 180.469L224.47 190.827L238.492 196.864C242.122 193.572 245.403 190.603 247.821 188.417C248.757 187.571 249.564 186.841 250.212 186.256L235.815 180.469ZM253.31 187.501L252.885 187.885C252.164 188.536 251.121 189.478 249.833 190.642C247.643 192.623 244.745 195.245 241.521 198.168L256.334 204.546L268.255 193.508L253.31 187.501ZM271.334 194.746L259.349 205.844L273.172 211.796L285.707 200.523L271.334 194.746ZM288.808 201.77L276.206 213.102L290.769 219.372L303.705 207.758L288.808 201.77ZM306.807 209.005L293.804 220.678L309.02 227.23L321.782 215.024L306.807 209.005ZM322.342 214.488L322.341 214.489ZM306.623 229.464L291.345 222.886L278.97 233.996L294.214 240.902L306.623 229.464ZM291.803 243.104L276.532 236.185L263.894 247.53L279.224 254.543L291.803 243.104ZM276.824 256.744L261.46 249.715L250.645 259.425L265.744 266.947L276.824 256.744ZM247.583 258.317C247.712 258.088 247.882 257.873 248.093 257.684L258.485 248.354L244.248 241.841L233.424 251.574L247.583 258.317ZM230.491 250.177L241.274 240.48L228.334 234.56L217.93 244.194L230.491 250.177ZM215.014 242.805L225.379 233.208L209.883 226.119L209.876 226.116L176.761 211.16L166.627 219.76L215.014 242.805ZM163.657 218.346L173.735 209.793L159.065 203.168L148.751 211.247L163.657 218.346ZM145.726 209.806L155.98 201.774L142.477 195.676L132.325 203.423L145.726 209.806ZM129.28 201.973L139.371 194.273L126.184 188.317L116.153 195.721L129.28 201.973ZM128.95 186.275L142.08 192.205L156.006 181.578L143.183 175.768L128.95 186.275ZM145.947 173.727L158.714 179.511L170.215 170.735L157.448 165.238L145.947 173.727ZM173.377 172.096L161.817 180.917L174.988 186.884L186.6 177.789L173.377 172.096ZM189.739 179.14L178.07 188.281L191.769 194.488L203.083 184.885L189.739 179.14ZM206.159 186.21L194.791 195.857L207.972 201.829L219.016 191.745L206.159 186.21ZM222.04 193.047L210.946 203.176L224.704 209.41C228.388 206.043 232.336 202.452 236.051 199.079L222.04 193.047ZM239.079 200.383C235.39 203.73 231.422 207.338 227.678 210.757L242.415 217.434L253.927 206.776L239.079 200.383ZM256.941 208.073L245.38 218.777L258.698 224.811L270.716 214.004L256.941 208.073ZM273.75 215.311L261.682 226.163L275.985 232.644L288.31 221.579L273.75 215.311ZM273.547 234.832L259.246 228.353L246.679 239.654L260.92 246.169L273.547 234.832ZM243.706 238.294L256.263 227.001L242.992 220.989L230.719 232.352L243.706 238.294ZM227.763 231L240.027 219.645L225.268 212.959C221.665 216.256 218.393 219.266 215.948 221.549C214.774 222.645 213.794 223.569 213.062 224.274L227.763 231ZM210.134 222.941C210.31 222.765 210.512 222.567 210.738 222.348C211.511 221.599 212.592 220.578 213.901 219.355C216.14 217.266 219.064 214.572 222.296 211.612L208.535 205.377L196.194 216.645L210.134 222.941ZM193.218 215.301L205.561 204.03L192.261 198.004L179.292 209.011L193.218 215.301ZM176.266 207.645L189.239 196.635L175.406 190.368L161.731 201.08L176.266 207.645ZM158.645 199.686L172.324 188.971L159.109 182.984L145.187 193.608L158.645 199.686ZM280.509 257.429L266.27 270.54L265.355 270.104L265.331 270.093L114.111 198.071C112.406 197.26 112.182 194.924 113.701 193.803L170.16 152.125C170.858 151.61 171.773 151.493 172.577 151.816L323.62 212.53C325.306 213.207 325.729 215.4 324.416 216.656L310.366 230.094L295.517 243.782L295.509 243.789L280.516 257.422L280.509 257.429Z" fill="#787878"/>
  <path d="M61.424 21.6253C62.2247 20.6003 63.7753 20.6003 64.576 21.6253L87.0381 50.3767C87.6033 51.1002 87.6033 52.1157 87.0381 52.8392L64.576 81.5906C63.7753 82.6155 62.2247 82.6155 61.424 81.5906L38.9619 52.8392C38.3967 52.1157 38.3967 51.1002 38.9619 50.3767L61.424 21.6253Z" fill="#60A5FA"/>
  <path fill-rule="evenodd" clip-rule="evenodd" d="M65.316 44.659C65.4406 44.7004 65.5559 44.766 65.6552 44.8521C65.7544 44.9381 65.8358 45.0428 65.8946 45.1603C65.9534 45.2778 65.9884 45.4057 65.9978 45.5367C66.0071 45.6677 65.9905 45.7993 65.949 45.924L61.949 57.924C61.8652 58.1756 61.6848 58.3837 61.4476 58.5024C61.2104 58.6212 60.9357 58.6408 60.684 58.557C60.4323 58.4731 60.2242 58.2928 60.1055 58.0556C59.9868 57.8183 59.9672 57.5436 60.051 57.292L64.051 45.292C64.0925 45.1673 64.1581 45.0521 64.2441 44.9528C64.3301 44.8535 64.4349 44.7722 64.5524 44.7134C64.6698 44.6546 64.7977 44.6195 64.9288 44.6102C65.0598 44.6009 65.1914 44.6174 65.316 44.659V44.659ZM58.707 47.901C58.8945 48.0885 58.9998 48.3428 58.9998 48.608C58.9998 48.8731 58.8945 49.1274 58.707 49.315L56.414 51.608L58.707 53.901C58.8025 53.9932 58.8787 54.1035 58.9311 54.2256C58.9835 54.3476 59.0111 54.4788 59.0123 54.6116C59.0134 54.7443 58.9881 54.876 58.9378 54.9989C58.8875 55.1218 58.8133 55.2335 58.7194 55.3273C58.6255 55.4212 58.5139 55.4955 58.391 55.5458C58.2681 55.5961 58.1364 55.6214 58.0036 55.6202C57.8708 55.6191 57.7396 55.5915 57.6176 55.5391C57.4956 55.4866 57.3852 55.4105 57.293 55.315L54.293 52.315C54.1055 52.1274 54.0002 51.8731 54.0002 51.608C54.0002 51.3428 54.1055 51.0885 54.293 50.901L57.293 47.901C57.4805 47.7135 57.7348 47.6082 58 47.6082C58.2652 47.6082 58.5195 47.7135 58.707 47.901V47.901ZM67.293 47.901C67.4805 47.7135 67.7348 47.6082 68 47.6082C68.2652 47.6082 68.5195 47.7135 68.707 47.901L71.707 50.901C71.8945 51.0885 71.9998 51.3428 71.9998 51.608C71.9998 51.8731 71.8945 52.1274 71.707 52.315L68.707 55.315C68.6148 55.4105 68.5044 55.4866 68.3824 55.5391C68.2604 55.5915 68.1292 55.6191 67.9964 55.6202C67.8636 55.6214 67.7319 55.5961 67.609 55.5458C67.4861 55.4955 67.3745 55.4212 67.2806 55.3273C67.1867 55.2335 67.1125 55.1218 67.0622 54.9989C67.0119 54.876 66.9866 54.7443 66.9877 54.6116C66.9889 54.4788 67.0165 54.3476 67.0689 54.2256C67.1213 54.1035 67.1975 53.9932 67.293 53.901L69.586 51.608L67.293 49.315C67.1055 49.1274 67.0002 48.8731 67.0002 48.608C67.0002 48.3428 67.1055 48.0885 67.293 47.901V47.901Z" fill="#BFDBFE"/>
  <path d="M426.424 209.017C427.225 207.992 428.775 207.992 429.576 209.017L452.038 237.769C452.603 238.492 452.603 239.508 452.038 240.231L429.576 268.983C428.775 270.008 427.225 270.008 426.424 268.983L403.962 240.231C403.397 239.508 403.397 238.492 403.962 237.769L426.424 209.017Z" fill="#60A5FA"/>
  <path d="M431 236H425V242H431V236Z" fill="#BFDBFE"/>
  <path fill-rule="evenodd" clip-rule="evenodd" d="M425 231C425 230.735 425.105 230.48 425.293 230.293C425.48 230.105 425.735 230 426 230C426.265 230 426.52 230.105 426.707 230.293C426.895 230.48 427 230.735 427 231V232H429V231C429 230.735 429.105 230.48 429.293 230.293C429.48 230.105 429.735 230 430 230C430.265 230 430.52 230.105 430.707 230.293C430.895 230.48 431 230.735 431 231V232H433C433.53 232 434.039 232.211 434.414 232.586C434.789 232.961 435 233.47 435 234V236H436C436.265 236 436.52 236.105 436.707 236.293C436.895 236.48 437 236.735 437 237C437 237.265 436.895 237.52 436.707 237.707C436.52 237.895 436.265 238 436 238H435V240H436C436.265 240 436.52 240.105 436.707 240.293C436.895 240.48 437 240.735 437 241C437 241.265 436.895 241.52 436.707 241.707C436.52 241.895 436.265 242 436 242H435V244C435 244.53 434.789 245.039 434.414 245.414C434.039 245.789 433.53 246 433 246H431V247C431 247.265 430.895 247.52 430.707 247.707C430.52 247.895 430.265 248 430 248C429.735 248 429.48 247.895 429.293 247.707C429.105 247.52 429 247.265 429 247V246H427V247C427 247.265 426.895 247.52 426.707 247.707C426.52 247.895 426.265 248 426 248C425.735 248 425.48 247.895 425.293 247.707C425.105 247.52 425 247.265 425 247V246H423C422.47 246 421.961 245.789 421.586 245.414C421.211 245.039 421 244.53 421 244V242H420C419.735 242 419.48 241.895 419.293 241.707C419.105 241.52 419 241.265 419 241C419 240.735 419.105 240.48 419.293 240.293C419.48 240.105 419.735 240 420 240H421V238H420C419.735 238 419.48 237.895 419.293 237.707C419.105 237.52 419 237.265 419 237C419 236.735 419.105 236.48 419.293 236.293C419.48 236.105 419.735 236 420 236H421V234C421 233.47 421.211 232.961 421.586 232.586C421.961 232.211 422.47 232 423 232H425V231ZM423 234H433V244H423V234Z" fill="#BFDBFE"/>
  <path d="M42.424 268.017C43.2247 266.992 44.7753 266.992 45.576 268.017L68.0381 296.769C68.6033 297.492 68.6033 298.508 68.0381 299.231L45.576 327.983C44.7753 329.008 43.2247 329.008 42.424 327.983L19.9619 299.231C19.3967 298.508 19.3967 297.492 19.9619 296.769L42.424 268.017Z" fill="#F87171"/>
  <path fill-rule="evenodd" clip-rule="evenodd" d="M38 293C37.4696 293 36.9609 293.211 36.5858 293.586C36.2107 293.961 36 294.47 36 295V303C36 303.53 36.2107 304.039 36.5858 304.414C36.9609 304.789 37.4696 305 38 305H50C50.5304 305 51.0391 304.789 51.4142 304.414C51.7893 304.039 52 303.53 52 303V295C52 294.47 51.7893 293.961 51.4142 293.586C51.0391 293.211 50.5304 293 50 293H48.414C48.1488 293 47.8945 292.895 47.707 292.707L46.586 291.586C46.211 291.211 45.7024 291 45.172 291H42.828C42.2976 291 41.789 291.211 41.414 291.586L40.293 292.707C40.1055 292.895 39.8512 293 39.586 293H38ZM44 302C44.394 302 44.7841 301.922 45.1481 301.772C45.512 301.621 45.8427 301.4 46.1213 301.121C46.3999 300.843 46.6209 300.512 46.7716 300.148C46.9224 299.784 47 299.394 47 299C47 298.606 46.9224 298.216 46.7716 297.852C46.6209 297.488 46.3999 297.157 46.1213 296.879C45.8427 296.6 45.512 296.379 45.1481 296.228C44.7841 296.078 44.394 296 44 296C43.2044 296 42.4413 296.316 41.8787 296.879C41.3161 297.441 41 298.204 41 299C41 299.796 41.3161 300.559 41.8787 301.121C42.4413 301.684 43.2044 302 44 302V302Z" fill="#FECACA"/>
  <path d="M457.424 35.0173C458.225 33.9924 459.775 33.9924 460.576 35.0173L483.038 63.7687C483.603 64.4923 483.603 65.5077 483.038 66.2313L460.576 94.9827C459.775 96.0076 458.225 96.0076 457.424 94.9827L434.962 66.2313C434.397 65.5077 434.397 64.4923 434.962 63.7687L457.424 35.0173Z" fill="#F87171"/>
  <path d="M467 58C467 57.8521 466.967 57.7061 466.904 57.5724C466.84 57.4388 466.748 57.3208 466.634 57.2271C466.519 57.1334 466.386 57.0662 466.242 57.0304C466.099 56.9946 465.949 56.991 465.804 57.02L455.804 59.02C455.577 59.0653 455.373 59.1877 455.227 59.3663C455.08 59.545 455 59.7689 455 60V69.114C454.672 69.0376 454.337 68.9994 454 69C452.343 69 451 69.895 451 71C451 72.105 452.343 73 454 73C455.657 73 457 72.105 457 71V62.82L465 61.22V67.114C464.672 67.0376 464.337 66.9994 464 67C462.343 67 461 67.895 461 69C461 70.105 462.343 71 464 71C465.657 71 467 70.105 467 69V58Z" fill="#FECACA"/>
  <path d="M87.1583 82.92C87.5518 82.3066 88.4482 82.3066 88.8417 82.92L95.6724 93.568C96.0993 94.2335 95.6214 95.1079 94.8307 95.1079H81.1693C80.3786 95.1079 79.9007 94.2335 80.3276 93.568L87.1583 82.92Z" fill="#FCA5A5"/>
  <path d="M15.224 24.785C15.3576 24.0686 16.1881 23.7312 16.7836 24.1514L23.2232 28.6957C23.8692 29.1517 23.7555 30.1416 23.023 30.4393L15.1375 33.6428C14.4049 33.9404 13.6331 33.3102 13.7781 32.5328L15.224 24.785Z" fill="#93C5FD"/>
  <path d="M103.878 15.4343C104.54 15.1291 105.295 15.6115 105.297 16.3403L105.313 24.2218C105.315 25.0126 104.442 25.4923 103.775 25.0668L96.6016 20.4864C95.9351 20.0608 96.0029 19.0667 96.7209 18.7355L103.878 15.4343Z" fill="#93C5FD"/>
  <path d="M5.897 266.313C6.00259 265.592 6.81926 265.223 7.43066 265.619L13.6312 269.641C14.2946 270.072 14.2197 271.065 13.4993 271.391L6.22782 274.682C5.50742 275.008 4.71151 274.409 4.82609 273.626L5.897 266.313Z" fill="#93C5FD"/>
  <path d="M19.4448 327.474C19.9201 326.921 20.8077 327.047 21.1117 327.709L24.1944 334.426C24.5242 335.145 23.9288 335.944 23.1458 335.833L15.2427 334.719C14.4597 334.608 14.1086 333.676 14.6243 333.076L19.4448 327.474Z" fill="#93C5FD"/>
  <path d="M78.7137 337.18C78.7378 337.908 77.9996 338.417 77.3276 338.135L66.2084 333.472C65.4792 333.166 65.3766 332.175 66.0277 331.726L76.7493 324.339C77.4004 323.89 78.2901 324.339 78.3162 325.129L78.7137 337.18Z" fill="#FCA5A5"/>
  <path d="M381.608 257.919C382.153 257.436 383.016 257.679 383.229 258.376L388.932 277.104C389.163 277.861 388.465 278.573 387.704 278.358L367.356 272.622C366.594 272.408 366.372 271.436 366.963 270.912L381.608 257.919Z" fill="#FCA5A5"/>
  <path d="M471.27 210.399C471.588 209.744 472.478 209.638 472.941 210.201L480.924 219.908C481.427 220.518 481.055 221.443 480.27 221.536L466.792 223.132C466.007 223.225 465.429 222.413 465.775 221.702L471.27 210.399Z" fill="#93C5FD"/>
  <path d="M440.002 104.386C440.466 103.823 441.356 103.93 441.674 104.586L447.143 115.878C447.487 116.59 446.909 117.401 446.123 117.307L432.671 115.694C431.885 115.599 431.515 114.674 432.018 114.064L440.002 104.386Z" fill="#93C5FD"/>
  <path d="M483.913 90.9822C484.376 90.42 485.267 90.5267 485.584 91.1826L488.685 97.5851C489.03 98.2968 488.451 99.108 487.666 99.0139L480.038 98.0992C479.253 98.005 478.883 97.0799 479.386 96.4699L483.913 90.9822Z" fill="#FCA5A5"/>
  <path d="M428.913 34.9822C429.376 34.42 430.267 34.5267 430.584 35.1826L433.685 41.5851C434.03 42.2968 433.451 43.108 432.666 43.0139L425.038 42.0992C424.253 42.005 423.883 41.0799 424.386 40.4699L428.913 34.9822Z" fill="#FCA5A5"/>
  <defs>
    <filter id="filter0_f" x="168.5" y="72.2009" width="216" height="136.799" filterUnits="userSpaceOnUse" color-interpolation-filters="sRGB">
      <feFlood flood-opacity="0" result="BackgroundImageFix"/>
      <feBlend mode="normal" in="SourceGraphic" in2="BackgroundImageFix" result="shape"/>
      <feGaussianBlur stdDeviation="1.5" result="effect1_foregroundBlur"/>
    </filter>
    <filter id="filter1_f" x="166.5" y="71.3017" width="215.5" height="139.198" filterUnits="userSpaceOnUse" color-interpolation-filters="sRGB">
      <feFlood flood-opacity="0" result="BackgroundImageFix"/>
      <feBlend mode="normal" in="SourceGraphic" in2="BackgroundImageFix" result="shape"/>
      <feGaussianBlur stdDeviation="2" result="effect1_foregroundBlur"/>
    </filter>
    <filter id="filter2_f" x="177.5" y="118.5" width="196.5" height="90.5" filterUnits="userSpaceOnUse" color-interpolation-filters="sRGB">
      <feFlood flood-opacity="0" result="BackgroundImageFix"/>
      <feBlend mode="normal" in="SourceGraphic" in2="BackgroundImageFix" result="shape"/>
      <feGaussianBlur stdDeviation="1" result="effect1_foregroundBlur"/>
    </filter>
    <linearGradient id="paint0_linear" x1="240" y1="185.5" x2="338.5" y2="12.5" gradientUnits="userSpaceOnUse">
      <stop stop-color="#1D1F3D"/>
      <stop offset="1" stop-color="#3D4180"/>
    </linearGradient>
    <linearGradient id="paint1_linear" x1="259.5" y1="165" x2="284.5" y2="74" gradientUnits="userSpaceOnUse">
      <stop stop-color="#60A5FA"/>
      <stop offset="1" stop-color="#60A5FA" stop-opacity="0.6"/>
    </linearGradient>
    <linearGradient id="paint2_linear" x1="270.5" y1="74.5" x2="253.5" y2="189.5" gradientUnits="userSpaceOnUse">
      <stop stop-color="#F87171" stop-opacity="0.6"/>
      <stop offset="1" stop-color="#F87171"/>
    </linearGradient>
  </defs>
</svg>
