<svg width="62" height="81" viewBox="0 0 62 81" fill="none" xmlns="http://www.w3.org/2000/svg">
  <path fill-rule="evenodd" clip-rule="evenodd" d="M5.12777 0H53.8722C55.6553 0 56.3018 0.185651 56.9537 0.534265C57.6055 0.88288 58.1171 1.39446 58.4657 2.04631C58.8144 2.69816 59 3.34473 59 5.12777V75.8722C59 77.6553 58.8144 78.3018 58.4657 78.9537C58.1171 79.6055 57.6055 80.1171 56.9537 80.4657C56.3018 80.8144 55.6553 81 53.8722 81H5.12777C3.34473 81 2.69816 80.8144 2.04631 80.4657C1.39446 80.1171 0.88288 79.6055 0.534265 78.9537C0.185651 78.3018 0 77.6553 0 75.8722V5.12777C0 3.34473 0.185651 2.69816 0.534265 2.04631C0.88288 1.39446 1.39446 0.88288 2.04631 0.534265C2.69816 0.185651 3.34473 0 5.12777 0Z" fill="#3F3F46"/>
  <path fill-rule="evenodd" clip-rule="evenodd" d="M5.56389 3H53.4361C54.3276 3 54.6509 3.09283 54.9768 3.26713C55.3028 3.44144 55.5586 3.69723 55.7329 4.02315C55.9072 4.34908 56 4.67237 56 5.56389V75.4361C56 76.3276 55.9072 76.6509 55.7329 76.9768C55.5586 77.3028 55.3028 77.5586 54.9768 77.7329C54.6509 77.9072 54.3276 78 53.4361 78H5.56389C4.67237 78 4.34908 77.9072 4.02315 77.7329C3.69723 77.5586 3.44144 77.3028 3.26713 76.9768C3.09283 76.6509 3 76.3276 3 75.4361V5.56389C3 4.67237 3.09283 4.34908 3.26713 4.02315C3.44144 3.69723 3.69723 3.44144 4.02315 3.26713C4.34908 3.09283 4.67237 3 5.56389 3Z" fill="#52525B"/>
  <path d="M60.5 12C59.6716 12 59 12.6716 59 13.5V61.6754C59 61.8904 59.034 62.1029 59.1057 62.3055C59.3759 63.0692 60.0989 65 60.5 65C60.9011 65 61.6241 63.0692 61.8943 62.3055C61.966 62.1029 62 61.8904 62 61.6754V13.5C62 12.6716 61.3284 12 60.5 12Z" fill="#D4D4D8"/>
</svg>
