<svg width="59px" height="76px" viewBox="0 0 59 76" version="1.1" xmlns="http://www.w3.org/2000/svg" xmlns:xlink="http://www.w3.org/1999/xlink">
    <g stroke="none" stroke-width="1" fill="none" fill-rule="evenodd">
        <rect fill="#FFFFFF" x="0" y="0" width="59" height="76"></rect>
        <g transform="translate(20.000000, 0.000000)" fill="#EEEEEE">
            <rect id="Rectangle" x="0" y="0" width="1" height="76"></rect>
            <rect id="Rectangle-Copy-16" x="19" y="0" width="1" height="76"></rect>
        </g>
        <g transform="translate(1.000000, 1.000000)" fill="#EEEEEE">
          <rect id="Rectangle" x="21" y="0" width="16" height="2"></rect>
          <rect id="Rectangle-Copy-15" x="21" y="40" width="16" height="2"></rect>
          <rect id="Rectangle-Copy-25" x="40" y="33" width="17" height="2"></rect>
          <rect id="Rectangle-Copy-30" x="40" y="65" width="17" height="2"></rect>
          <rect id="Rectangle-Copy-31" x="40" y="68" width="8" height="6"></rect>
          <rect id="Rectangle-Copy-32" x="49" y="68" width="8" height="6"></rect>
          <rect id="Rectangle-Copy-26" x="40" y="36" width="17" height="9"></rect>
          <rect id="Rectangle-Copy-27" x="40" y="46" width="8" height="9"></rect>
          <rect id="Rectangle-Copy-29" x="49" y="46" width="8" height="8"></rect>
          <rect id="Rectangle-Copy-28" x="40" y="55" width="17" height="9"></rect>
          <rect id="Rectangle-Copy-17" x="21" y="55" width="16" height="11"></rect>
          <rect id="Rectangle-Copy-19" x="21" y="67" width="16" height="6"></rect>
          <rect id="Rectangle-Copy-20" x="40" y="0" width="17" height="8"></rect>
          <rect id="Rectangle-Copy-21" x="49" y="8" width="8" height="23"></rect>
          <rect id="Rectangle-Copy-22" x="40" y="9" width="8" height="6"></rect>
          <rect id="Rectangle-Copy-23" x="40" y="16" width="8" height="6"></rect>
          <rect id="Rectangle-Copy-24" x="40" y="23" width="8" height="8"></rect>
          <rect id="Rectangle-Copy-18" x="21" y="43" width="16" height="11"></rect>
          <rect id="Rectangle-Copy-13" x="0" y="0" width="18" height="2"></rect>
          <path d="M29,10 L21,10 L21,4 L29,4 L37,4 L37,17 L29,17 L29,10 Z" id="Combined-Shape"></path>
          <path d="M29,31 L21,31 L21,25 L29,25 L37,25 L37,38 L29,38 L29,31 Z M21,32 L28,32 L28,38 L21,38 L21,32 Z" id="Combined-Shape-Copy-2"></path>
          <path d="M30,17 L21,17 L21,11 L30,11 L37,11 L37,24 L30,24 L30,17 Z" id="Combined-Shape-Copy" transform="translate(29.000000, 17.500000) rotate(-180.000000) translate(-29.000000, -17.500000) "></path>
          <rect id="Rectangle-Copy-5" x="0" y="31" width="18" height="2"></rect>
          <rect id="Rectangle-Copy-10" x="0" y="70" width="18" height="2"></rect>
          <rect id="Rectangle-Copy-9" x="0" y="67" width="18" height="2"></rect>
          <rect id="Rectangle-Copy-6" x="0" y="34" width="8" height="7"></rect>
          <rect id="Rectangle-Copy-8" x="0" y="42" width="18" height="24"></rect>
          <rect id="Rectangle-Copy-7" x="10" y="34" width="8" height="7"></rect>
          <rect id="Rectangle-Copy" x="0" y="4" width="9" height="2"></rect>
          <rect id="Rectangle-Copy-2" x="10" y="4" width="8" height="13"></rect>
          <path d="M9,18 L18,18 L18,29 L9,29 L0,29 L0,8 L9,8 L9,18 Z" id="Combined-Shape"></path>
        </g>
    </g>
</svg>